<svg id="Capa_1" data-name="Capa 1" xmlns="http://www.w3.org/2000/svg" viewBox="0 0 269 294"><defs><style>.cls-1,.cls-12{fill:#328635;}.cls-1{stroke:#318635;}.cls-1,.cls-14,.cls-2,.cls-3,.cls-4,.cls-5,.cls-6{stroke-miterlimit:10;stroke-width:4.14px;}.cls-2,.cls-7{fill:#0086bf;}.cls-2{stroke:#0086c0;}.cls-3,.cls-9{fill:#263265;}.cls-3{stroke:#253264;}.cls-4,.cls-8{fill:#ed8508;}.cls-4{stroke:#ed8507;}.cls-13,.cls-5{fill:#77c0dc;}.cls-5{stroke:#77c0dd;}.cls-11,.cls-6{fill:#d82616;}.cls-6{stroke:#d92616;}.cls-10,.cls-14{fill:#59256f;}.cls-14{stroke:#59256f;}.cls-15{fill:#fff;}</style></defs><line class="cls-1" x1="141.85" y1="114.68" x2="141.85" y2="31.16"/><line class="cls-2" x1="95.65" y1="140.05" x2="47.66" y2="107.71"/><line class="cls-3" x1="179.95" y1="128.22" x2="209.48" y2="95.49"/><line class="cls-4" x1="219.53" y1="258" x2="180.22" y2="211.25"/><line class="cls-5" x1="31.35" y1="214.97" x2="93.63" y2="192.48"/><line class="cls-6" x1="124.2" y1="267.5" x2="131.91" y2="224.09"/><circle class="cls-7" cx="38.28" cy="98.63" r="15.32"/><circle class="cls-8" cx="225" cy="265.66" r="15.32"/><circle class="cls-9" cx="214.06" cy="89.88" r="11.67"/><circle class="cls-10" cx="257.46" cy="167.56" r="9.12"/><circle class="cls-11" cx="121.43" cy="277.33" r="11.67"/><circle class="cls-12" cx="141.85" cy="23.51" r="17.51"/><circle class="cls-13" cx="19.32" cy="220.44" r="15.32"/><line class="cls-14" x1="204.71" y1="168.01" x2="248.8" y2="168.01"/><path class="cls-15" d="M209.54,165H147.23v12.41l49.92,0A53.63,53.63,0,0,1,144,223.72a53.56,53.56,0,0,1-49.13-32.14,53.61,53.61,0,0,1,8.26-56.15,53.68,53.68,0,0,1,38.93-18.89c.65,0,1.29,0,1.94,0a53.42,53.42,0,0,1,36.45,14.31l8.44-9.09A65.75,65.75,0,0,0,144,104.1c-.81,0-1.62,0-2.41.05a66,66,0,1,0,68,73.35,17.54,17.54,0,0,0,.09-2.29Z"/></svg>