<svg id="Capa_1" data-name="Capa 1" xmlns="http://www.w3.org/2000/svg" viewBox="0 0 269 294"><defs><style>.cls-1,.cls-12{fill:#328635;}.cls-1{stroke:#318635;}.cls-1,.cls-14,.cls-15,.cls-2,.cls-3,.cls-4,.cls-5,.cls-6{stroke-miterlimit:10;}.cls-1,.cls-14,.cls-2,.cls-3,.cls-4,.cls-5,.cls-6{stroke-width:4.14px;}.cls-2,.cls-7{fill:#0086bf;}.cls-2{stroke:#0086c0;}.cls-3,.cls-9{fill:#263265;}.cls-3{stroke:#253264;}.cls-4,.cls-8{fill:#ed8508;}.cls-4{stroke:#ed8507;}.cls-13,.cls-5{fill:#77c0dc;}.cls-5{stroke:#77c0dd;}.cls-11,.cls-6{fill:#d82616;}.cls-6{stroke:#d92616;}.cls-10,.cls-14{fill:#59256f;}.cls-14{stroke:#59256f;}.cls-15{fill:none;stroke:#1d1d1b;stroke-width:12.41px;}</style></defs><line class="cls-1" x1="140.85" y1="115.68" x2="140.85" y2="32.16"/><line class="cls-2" x1="94.65" y1="141.05" x2="46.66" y2="108.71"/><line class="cls-3" x1="178.95" y1="129.22" x2="208.48" y2="96.49"/><line class="cls-4" x1="218.53" y1="259" x2="179.22" y2="212.25"/><line class="cls-5" x1="30.35" y1="215.97" x2="92.63" y2="193.48"/><line class="cls-6" x1="123.2" y1="268.5" x2="130.91" y2="225.09"/><circle class="cls-7" cx="37.28" cy="99.63" r="15.32"/><circle class="cls-8" cx="224" cy="266.66" r="15.32"/><circle class="cls-9" cx="213.06" cy="90.88" r="11.67"/><circle class="cls-10" cx="256.46" cy="168.56" r="9.12"/><circle class="cls-11" cx="120.43" cy="278.33" r="11.67"/><circle class="cls-12" cx="140.85" cy="24.51" r="17.51"/><circle class="cls-13" cx="18.32" cy="221.44" r="15.32"/><line class="cls-14" x1="203.71" y1="169.01" x2="247.8" y2="169.01"/><path class="cls-15" d="M183.71,127.27a59.58,59.58,0,0,0-40.67-16c-.73,0-1.46,0-2.19,0a59.8,59.8,0,1,0,61.73,65.43"/><line class="cls-15" x1="208.54" y1="172.19" x2="146.23" y2="172.2"/></svg>